<?xml version="1.0" encoding="utf-8"?>
<!-- Generator: Adobe Illustrator 18.0.0, SVG Export Plug-In . SVG Version: 6.00 Build 0)  -->
<!DOCTYPE svg PUBLIC "-//W3C//DTD SVG 1.1//EN" "http://www.w3.org/Graphics/SVG/1.1/DTD/svg11.dtd">
<svg version="1.1" id="Layer_1" xmlns="http://www.w3.org/2000/svg" xmlns:xlink="http://www.w3.org/1999/xlink" x="0px" y="0px"
	 viewBox="0 0 11 29" enable-background="new 0 0 11 29" xml:space="preserve">
<path fill="#0054FF" d="M10.7,8.8L5.9,1.2c0,0,0.1,0.2,0.1,0.2C5.9,1.2,5.7,1,5.5,1C5.2,1,5,1.2,5,1.4c0,0,0.1-0.2,0.1-0.1L0.1,8.8
	c-0.1,0.1,0,0.2,0.1,0.3l0.4,0.2c0.1,0.1,0.2,0,0.3-0.1L5,3l0,25.6C5,28.8,5.2,29,5.5,29C5.8,29,6,28.8,6,28.5V3l4,6.3
	c0.1,0.1,0.3,0.2,0.4,0.1l0.2-0.1C10.8,9.1,10.8,8.9,10.7,8.8z"/>
</svg>
