<?xml version="1.0" encoding="utf-8"?>
<!-- Generator: Adobe Illustrator 21.1.0, SVG Export Plug-In . SVG Version: 6.00 Build 0)  -->
<svg version="1.1" id="Capa_1" xmlns="http://www.w3.org/2000/svg" xmlns:xlink="http://www.w3.org/1999/xlink" x="0px" y="0px"
	 viewBox="0 0 430.1 430.1" style="enable-background:new 0 0 430.1 430.1;" xml:space="preserve">
<style type="text/css">
	.st0{fill:#0054FF;}
</style>
<g>
	<path class="st0" d="M428.3,72.3c0-37.5-33.8-71.4-71.4-71.4H71.4C33.9,1,0.1,34.9,0.1,72.3v285.5c0,37.5,33.8,71.4,71.4,71.4
		h142.7V267.4h-52.3v-71.4h52.3v-27.8c0-48,36-91.1,80.3-91.1h57.7v71.4h-57.7c-6.3,0-13.7,7.7-13.7,19.1v28.4h71.4v71.4h-71.4
		v161.8h76.1c37.5,0,71.4-33.9,71.4-71.4V72.3z M428.3,72.3"/>
</g>
</svg>
