<?xml version="1.0" encoding="utf-8"?>
<!-- Generator: Adobe Illustrator 21.1.0, SVG Export Plug-In . SVG Version: 6.00 Build 0)  -->
<svg version="1.1" id="Capa_1" xmlns="http://www.w3.org/2000/svg" xmlns:xlink="http://www.w3.org/1999/xlink" x="0px" y="0px"
	 viewBox="0 0 430.1 430.1" style="enable-background:new 0 0 430.1 430.1;" xml:space="preserve">
<style type="text/css">
	.st0{fill:#0054FF;}
</style>
<g>
	<path class="st0" d="M214.7,147.9c-37,0-67.1,30.1-67.1,67.1c0,37,30.1,67.1,67.1,67.1c37,0,67.1-30.1,67.1-67.1
		C281.8,178,251.7,147.9,214.7,147.9z"/>
	<path class="st0" d="M295.2,0.4H134.2C60.2,0.4,0.1,60.5,0.1,134.5v160.9c0,74.1,60.1,134.1,134.1,134.1h160.9
		c74.1,0,134.1-60.1,134.1-134.1V134.5C429.3,60.5,369.2,0.4,295.2,0.4z M214.7,322.3c-59.3,0-107.3-48-107.3-107.3
		s48-107.3,107.3-107.3S322,155.8,322,215S274,322.3,214.7,322.3z M330.1,114c-7.9,0-14.3-6.4-14.3-14.3s6.4-14.3,14.3-14.3
		s14.3,6.4,14.3,14.3S337.9,114,330.1,114z"/>
</g>
</svg>
