<?xml version="1.0" encoding="utf-8"?>
<!-- Generator: Adobe Illustrator 21.1.0, SVG Export Plug-In . SVG Version: 6.00 Build 0)  -->
<svg version="1.1" id="Capa_1" xmlns="http://www.w3.org/2000/svg" xmlns:xlink="http://www.w3.org/1999/xlink" x="0px" y="0px"
	 viewBox="0 0 430.1 430.1" style="enable-background:new 0 0 430.1 430.1;" xml:space="preserve">
<style type="text/css">
	.st0{fill:#0054FF;}
</style>
<g>
	<path class="st0" d="M428.9,271v158.2h-91.7V281.6c0-37.1-13.3-62.4-46.4-62.4c-25.3,0-40.4,17-47,33.5c-2.4,5.9-3,14.1-3,22.4v154
		h-91.7c0,0,1.2-250,0-275.8h91.7v39.1c-0.2,0.3-0.4,0.6-0.6,0.9h0.6v-0.9c12.2-18.8,33.9-45.6,82.7-45.6
		C383.7,146.9,428.9,186.3,428.9,271L428.9,271z M53,20.4C21.6,20.4,1.1,41,1.1,68c0,26.5,19.9,47.7,50.7,47.7h0.6
		c32,0,51.9-21.2,51.9-47.7C103.7,41,84.4,20.4,53,20.4L53,20.4z M6.6,429.2h91.7V153.4H6.6V429.2z M6.6,429.2"/>
</g>
</svg>
