<?xml version="1.0" encoding="utf-8"?>
<!-- Generator: Adobe Illustrator 18.0.0, SVG Export Plug-In . SVG Version: 6.00 Build 0)  -->
<!DOCTYPE svg PUBLIC "-//W3C//DTD SVG 1.1//EN" "http://www.w3.org/Graphics/SVG/1.1/DTD/svg11.dtd">
<svg version="1.1" id="Layer_1" xmlns="http://www.w3.org/2000/svg" xmlns:xlink="http://www.w3.org/1999/xlink" x="0px" y="0px"
	 viewBox="0 0 70 70" enable-background="new 0 0 70 70" xml:space="preserve">
<rect fill="#0054FF" width="70" height="70"/>
<path d="M40.3,17c0.2,0,0.5,0,0.7,0.1c1,0.1,2,0.3,3,0.6c2.9,0.7,5.7,1.7,8.4,2.8c1.9,0.7,3.8,1.5,5.7,2.4c0.3,0.1,0.5,0.3,0.7,0.4
	c0.1,0.1,0.2,0.1,0.2,0.3c0,0.1-0.2,0.2-0.3,0.2c-0.4,0.1-0.9,0.1-1.3,0.1c-0.4,0-0.8,0-1.2,0c-0.7,0-1.4,0.1-2.1,0.2
	c-0.8,0.1-1.6,0.2-2.5,0.3c-2.6,0.5-5.2,1.1-7.8,2c-2.8,1-5.6,1.9-8.4,3.1c-1,0.4-2.1,0.9-3.1,1.5c-0.2,0.1-0.5,0.3-0.7,0.5
	c-0.3,0.2-0.5,0.4-0.6,0.7c-0.4,1-0.7,2-1.1,3c-1.2,3.5-2.3,7-3.6,10.5c-0.7,1.9-1.4,3.8-2.3,5.6c-0.1,0.3-0.3,0.6-0.5,0.9
	c-0.2,0.3-0.4,0.6-0.8,0.7c-0.1,0-0.2,0-0.2,0c0,0,0,0,0,0c-0.4-0.1-0.7-0.4-0.7-0.8c-0.1-0.7-0.1-1.4-0.2-2
	c-0.2-1.4-0.3-2.9-0.5-4.3c-0.2-1.6-0.5-3.2-0.7-4.8c-0.3-2-0.7-4-1.2-6c-0.3-1.4-0.7-2.7-1.3-4.1c-0.3-0.8-0.7-1.5-1.3-2.1
	c0,0-0.1-0.1-0.1-0.2c-0.4-0.5-0.4-1,0-1.5c0.2-0.2,0.4-0.4,0.6-0.6c0.7-0.5,1.4-0.9,2.2-1.3c2.6-1.4,5.2-2.7,7.8-4.1
	c2.6-1.4,5.4-2.5,8.2-3.4c1.1-0.3,2.3-0.6,3.5-0.7c0.2,0,0.4,0,0.7-0.1C39.9,17,40.1,17,40.3,17z"/>
</svg>
