<?xml version="1.0" encoding="utf-8"?>
<!-- Generator: Adobe Illustrator 18.0.0, SVG Export Plug-In . SVG Version: 6.00 Build 0)  -->
<!DOCTYPE svg PUBLIC "-//W3C//DTD SVG 1.1//EN" "http://www.w3.org/Graphics/SVG/1.1/DTD/svg11.dtd">
<svg version="1.1" id="Layer_1" xmlns="http://www.w3.org/2000/svg" xmlns:xlink="http://www.w3.org/1999/xlink" x="0px" y="0px"
	 viewBox="0 0 70 70" enable-background="new 0 0 70 70" xml:space="preserve">
<rect fill="#0054FF" width="70" height="70"/>
<rect x="7" y="7" fill="#1A212E" width="55.8" height="55.8"/>
<g>
	<path fill="#FFFFFF" d="M23.2,44.9l1.6-0.4v-6.1l-5.5-10.9L18,27v-0.4h3.3c0.9,0,1.7,0.2,2.2,0.6c0.6,0.4,1,1,1.4,1.7l3.9,7.9
		l4.1-8.9l-2-0.8v-0.4H36V27l-2.1,0.8l-4.7,10.3v6.4l1.6,0.4v0.4h-7.6V44.9z"/>
	<path fill="#FFFFFF" d="M37.1,44.9l1.6-0.4V27.4L37.1,27v-0.4h7.5c3,0,5.1,0.5,6.3,1.5c1.3,1,1.9,2.4,1.9,4.3
		c0,1.9-0.6,3.3-1.9,4.3c-1.3,1-3.4,1.5-6.3,1.5h-1.5v6.4l1.6,0.4v0.4h-7.6V44.9z M44.5,37.4c1.1,0,2-0.4,2.7-1.3
		c0.7-0.9,1-2.1,1-3.8c0-1.7-0.3-2.9-1-3.8c-0.7-0.9-1.6-1.3-2.7-1.3h-1.5v10.1H44.5z"/>
</g>
</svg>
