<?xml version="1.0" encoding="utf-8"?>
<svg style="display:none" version="1.1" id="Layer_1" xmlns="http://www.w3.org/2000/svg" xmlns:xlink="http://www.w3.org/1999/xlink" x="0px" y="0px"
	 viewBox="0 0 159.1 21.7" style="enable-background:new 0 0 159.1 21.7;" xml:space="preserve">
<style type="text/css">
	.st0{fill:#3B4355;}
</style>
<path class="st0" d="M19,6.2h7.9V3.9H19V6.2L19,6.2z M20.9,11.1c-0.5,0.5-0.8,1.2-0.9,2.1H26c-0.1-0.9-0.4-1.6-0.9-2.1
	c-0.6-0.5-1.3-0.7-2.1-0.7C22.1,10.4,21.4,10.6,20.9,11.1L20.9,11.1L20.9,11.1z M26.2,8.1c0.9,0.4,1.7,1.1,2.3,2
	c0.6,0.8,0.9,1.7,1.1,2.8c0.1,0.6,0.1,1.5,0.1,2.7h-9.9c0.1,1.3,0.5,2.3,1.4,2.8c0.5,0.3,1.2,0.5,2,0.5c0.8,0,1.5-0.2,2-0.6
	c0.3-0.2,0.5-0.5,0.7-0.9h3.6c-0.1,0.8-0.5,1.6-1.3,2.4c-1.2,1.3-2.9,2-5.1,2c-1.8,0-3.4-0.5-4.8-1.6c-1.4-1.1-2.1-2.9-2.1-5.4
	c0-2.3,0.6-4.1,1.9-5.3C19.4,8.1,21,7.5,23,7.5C24.2,7.5,25.2,7.7,26.2,8.1L26.2,8.1L26.2,8.1z M3.7,13.2v4.8h4.5
	c0.8,0,1.4-0.1,1.9-0.3c0.8-0.4,1.2-1.1,1.2-2.3c0-0.9-0.4-1.6-1.2-1.9c-0.4-0.2-1.1-0.3-1.8-0.3H3.7L3.7,13.2z M3.7,6.2v4h4.5
	c0.8,0,1.4-0.1,1.9-0.4c0.5-0.3,0.7-0.8,0.7-1.6c0-0.8-0.3-1.4-1-1.7C9.3,6.3,8.5,6.2,7.7,6.2H3.7L3.7,6.2z M13.6,5
	c0.6,0.8,0.8,1.7,0.8,2.8c0,1.1-0.3,2-0.8,2.7c-0.3,0.4-0.8,0.7-1.4,1c0.9,0.3,1.6,0.9,2.1,1.6c0.5,0.7,0.7,1.6,0.7,2.7
	c0,1.1-0.3,2-0.8,2.9c-0.3,0.6-0.8,1-1.3,1.4c-0.6,0.4-1.3,0.7-2.1,0.9c-0.8,0.2-1.7,0.2-2.6,0.2H0V3.1h8.9
	C11.1,3.1,12.7,3.8,13.6,5L13.6,5L13.6,5z"/>
<g>
	<g>
		<path class="st0" d="M71.4,7.1c0-1.1-0.2-1.8-0.5-2.4c-0.3-0.7-0.6-1.2-1.1-1.8c-0.6-0.6-1.1-0.9-1.8-1.1
			c-0.6-0.2-1.4-0.4-2.4-0.5c-1.1,0-1.4-0.1-4.1-0.1c-2.7,0-3,0-4.1,0.1c-1.1,0-1.8,0.2-2.4,0.5c-0.7,0.3-1.2,0.6-1.8,1.1
			c-0.6,0.6-0.9,1.1-1.1,1.8c-0.2,0.6-0.4,1.4-0.5,2.4c0,1.1-0.1,1.4-0.1,4.1c0,2.7,0,3,0.1,4.1c0,1.1,0.2,1.8,0.5,2.4
			c0.3,0.7,0.6,1.2,1.1,1.8c0.6,0.6,1.1,0.9,1.8,1.1c0.6,0.2,1.4,0.4,2.4,0.5c1.1,0,1.4,0.1,4.1,0.1c2.7,0,3,0,4.1-0.1
			c1.1,0,1.8-0.2,2.4-0.5c0.7-0.3,1.2-0.6,1.8-1.1c0.6-0.6,0.9-1.1,1.1-1.8c0.2-0.6,0.4-1.4,0.5-2.4c0-1.1,0.1-1.4,0.1-4.1
			C71.5,8.5,71.5,8.2,71.4,7.1z M61.5,16.3c-2.8,0-5.1-2.3-5.1-5.1c0-2.8,2.3-5.1,5.1-5.1c2.8,0,5.1,2.3,5.1,5.1
			C66.7,14,64.4,16.3,61.5,16.3z M66.9,7.1c-0.7,0-1.2-0.5-1.2-1.2c0-0.7,0.5-1.2,1.2-1.2c0.7,0,1.2,0.5,1.2,1.2
			C68.1,6.5,67.5,7.1,66.9,7.1z M61.5,7.9c-1.8,0-3.3,1.5-3.3,3.3c0,1.8,1.5,3.3,3.3,3.3c1.8,0,3.3-1.5,3.3-3.3
			C64.9,9.4,63.4,7.9,61.5,7.9z"/>
	</g>
</g>
<path class="st0" d="M104.4,21.2h-9.9c-0.6,0-1.1-0.5-1.1-1.1V1.6c0-0.6,0.5-1.1,1.1-1.1H113c0.6,0,1.1,0.5,1.1,1.1V20
	c0,0.6-0.5,1.1-1.1,1.1h-5.3v-8h2.7l0.4-3.1h-3.1V8c0-0.9,0.3-1.5,1.6-1.5l1.7,0V3.7c-0.3,0-1.3-0.1-2.4-0.1c-2.4,0-4,1.5-4,4.1V10
	h-2.7v3.1h2.7V21.2L104.4,21.2z"/>
<path class="st0" d="M159.1,21.2h-5.1v-7.4c0-1.9-0.8-3.3-2.6-3.3c-1.4,0-2.1,0.9-2.5,1.8c-0.1,0.3-0.1,0.7-0.1,1.2v7.8h-5.1
	c0,0,0.1-13.2,0-14.4h5.1V9c0.3-1,1.9-2.4,4.5-2.4c3.2,0,5.8,2.1,5.8,6.5V21.2L159.1,21.2z M138.5,5L138.5,5c-1.7,0-2.7-1.1-2.7-2.5
	c0-1.4,1.1-2.5,2.8-2.5c1.7,0,2.7,1.1,2.7,2.5C141.3,3.9,140.2,5,138.5,5L138.5,5L138.5,5z M136.4,6.8h4.5v14.4h-4.5V6.8L136.4,6.8z
	"/>
</svg>
