<?xml version="1.0" encoding="utf-8"?>
<!-- Generator: Adobe Illustrator 18.0.0, SVG Export Plug-In . SVG Version: 6.00 Build 0)  -->
<!DOCTYPE svg PUBLIC "-//W3C//DTD SVG 1.1//EN" "http://www.w3.org/Graphics/SVG/1.1/DTD/svg11.dtd">
<svg version="1.1" id="Layer_1" xmlns="http://www.w3.org/2000/svg" xmlns:xlink="http://www.w3.org/1999/xlink" x="0px" y="0px"
	 viewBox="0 0 70 70" enable-background="new 0 0 70 70" xml:space="preserve">
<path fill="#3B4355" d="M20.6,26.5c2,0,3.8,0.2,5.4,0.5c1.6,0.3,3,0.9,4.2,1.7c1.2,0.8,2.1,1.8,2.7,3.2c0.6,1.3,1,3,1,4.9
	c0,2.1-0.5,3.9-1.4,5.3c-1,1.4-2.4,2.5-4.3,3.4c2.6,0.7,4.5,2,5.7,3.9c1.3,1.9,1.9,4.1,1.9,6.7c0,2.1-0.4,3.9-1.2,5.5
	c-0.8,1.5-1.9,2.8-3.3,3.8c-1.4,1-3,1.7-4.7,2.2c-1.8,0.5-3.6,0.7-5.4,0.7H1V26.5H20.6z M19.5,43.4c1.6,0,3-0.4,4-1.2
	c1.1-0.8,1.6-2,1.6-3.8c0-1-0.2-1.8-0.5-2.4c-0.4-0.6-0.8-1.1-1.4-1.4c-0.6-0.4-1.3-0.6-2-0.7c-0.8-0.1-1.5-0.2-2.4-0.2h-8.6v9.7
	H19.5z M20,61.1c0.9,0,1.8-0.1,2.6-0.3c0.8-0.2,1.5-0.5,2.2-0.9c0.6-0.4,1.1-1,1.5-1.7c0.4-0.7,0.5-1.6,0.5-2.7
	c0-2.1-0.6-3.7-1.8-4.6c-1.2-0.9-2.8-1.4-4.8-1.4h-10v11.5H20z"/>
<path fill="#3B4355" d="M49,61c1.2,1.2,3,1.8,5.4,1.8c1.7,0,3.1-0.4,4.3-1.3c1.2-0.8,1.9-1.7,2.2-2.7h7.3c-1.2,3.6-3,6.2-5.4,7.8
	c-2.4,1.6-5.3,2.3-8.7,2.3c-2.4,0-4.5-0.4-6.4-1.1c-1.9-0.8-3.5-1.8-4.9-3.2c-1.3-1.4-2.3-3.1-3.1-5c-0.7-1.9-1.1-4.1-1.1-6.4
	c0-2.3,0.4-4.4,1.1-6.3c0.8-2,1.8-3.6,3.2-5.1c1.4-1.4,3-2.5,4.9-3.4c1.9-0.8,4-1.2,6.3-1.2c2.6,0,4.8,0.5,6.7,1.5
	c1.9,1,3.5,2.3,4.7,4c1.2,1.7,2.1,3.6,2.7,5.7c0.5,2.1,0.7,4.4,0.6,6.7H46.9C46.9,57.5,47.7,59.8,49,61z M58.5,45.1
	c-1-1.1-2.7-1.7-4.7-1.7c-1.3,0-2.4,0.2-3.3,0.7c-0.9,0.4-1.6,1-2.1,1.7c-0.5,0.7-0.9,1.4-1.1,2.1c-0.2,0.7-0.3,1.4-0.4,2h13.5
	C60.2,47.8,59.5,46.2,58.5,45.1z"/>
<rect x="45.2" y="29.3" fill="#3B4355" width="16.9" height="4.1"/>
</svg>
