<?xml version="1.0" encoding="utf-8"?>
<!-- Generator: Adobe Illustrator 18.0.0, SVG Export Plug-In . SVG Version: 6.00 Build 0)  -->
<!DOCTYPE svg PUBLIC "-//W3C//DTD SVG 1.1//EN" "http://www.w3.org/Graphics/SVG/1.1/DTD/svg11.dtd">
<svg version="1.1" id="Layer_1" xmlns="http://www.w3.org/2000/svg" xmlns:xlink="http://www.w3.org/1999/xlink" x="0px" y="0px"
	 viewBox="0 0 40 40" enable-background="new 0 0 40 40" xml:space="preserve">
<circle fill="#0054FF" cx="20" cy="20" r="20"/>
<g>
	<path fill="#FFFFFF" d="M19,13.9v6.8c0,0.7-0.2,1.3-0.4,1.8s-0.7,0.9-1.2,1.1S16.2,24,15.5,24c-1,0-1.9-0.3-2.5-0.9s-1-1.4-1-2.4
		v-6.9h0.8v6.7c0,0.8,0.2,1.5,0.7,2s1.1,0.7,1.9,0.7s1.5-0.2,1.9-0.7s0.7-1.1,0.7-1.9v-6.7H19z"/>
	<path fill="#FFFFFF" d="M22.2,19.8v4.1h-0.8v-10h3.4c1,0,1.9,0.3,2.5,0.8s0.9,1.3,0.9,2.2c0,0.9-0.3,1.7-0.9,2.2s-1.4,0.8-2.5,0.8
		H22.2z M22.2,19.1h2.5c0.8,0,1.4-0.2,1.9-0.6c0.4-0.4,0.6-0.9,0.6-1.6c0-0.7-0.2-1.2-0.6-1.6s-1-0.6-1.8-0.6h-2.6V19.1z"/>
</g>
</svg>
