<?xml version="1.0" encoding="utf-8"?>
<!-- Generator: Adobe Illustrator 21.1.0, SVG Export Plug-In . SVG Version: 6.00 Build 0)  -->
<svg version="1.1" id="Layer_1" xmlns="http://www.w3.org/2000/svg" xmlns:xlink="http://www.w3.org/1999/xlink" x="0px" y="0px"
	 viewBox="0 0 437 71.5" style="enable-background:new 0 0 437 71.5;" xml:space="preserve">
<style type="text/css">
	.st0{fill:#111723;}
</style>
<g>
	<path class="st0" d="M19.5,68.5l6-1.5V44L5,3L0,1.5V0h12.5c3.5,0,6.3,0.7,8.4,2.2C23,3.7,24.7,5.8,26,8.5L40.8,38L56,4.5l-7.5-3V0
		h19v1.5l-8,3L42,43v24l6,1.5V70H19.5V68.5z"/>
	<path class="st0" d="M70.3,67.7c-3.2-2.5-4.8-5.8-4.8-9.7c0-2.6,0.6-5.2,1.7-7.7c0.5-1.2,1.1-2.3,1.8-3.3c2.7-0.7,5.7-1.3,8.9-1.8
		C85.1,44,91.5,43.3,97,43v-3c0-7.4-0.9-12.5-2.7-15.3c-1.8-2.8-4.6-4.2-8.3-4.2c-1.4,0-2.6,0.2-3.6,0.5L81,21.5v15l-1.3,0.3
		c-1.1,0.1-2,0.2-2.7,0.2c-2.3,0-4.1-0.7-5.5-2c-1.4-1.4-2-3.2-2-5.5c0-3.1,1.5-5.7,4.6-7.8c3.1-2.1,7.7-3.2,13.9-3.2
		c5.2,0,9.7,0.9,13.5,2.8c3.8,1.8,6.6,4.4,8.6,7.6c2,3.2,3,6.9,3,11.1v27l6,1.5V70h-9c-4,0-7.1-1.2-9.3-3.7c-0.9-1-1.7-2.3-2.2-3.8
		c-0.9,1.7-2,3.2-3.3,4.5c-3,3-6.7,4.5-11.2,4.5C78.1,71.5,73.5,70.2,70.3,67.7z M94.7,64c0.7-1,1.5-2.3,2.3-4V45.5
		c-3.1,0-6,0.2-8.8,0.5c-2.1,0.3-3.5,0.4-4.2,0.5c-0.3,0.7-0.7,1.7-1,3c-0.7,2.5-1,5-1,7.5c0,3.7,0.6,6.5,1.7,8.3
		c1.1,1.8,2.6,2.7,4.3,2.7C90.5,68,92.7,66.7,94.7,64z"/>
	<path class="st0" d="M125,68.5l6-1.5V23l-6-1.5V20h9c3.9,0,7,1.3,9.3,3.8c0.9,1,1.6,2.2,2.2,3.7c1-1.5,2.2-2.8,3.7-4
		c3.3-2.7,7.1-4,11.2-4c3.5,0,6.2,0.8,8,2.5c1.8,1.6,2.6,4,2.6,7c0,2.3-0.7,4.1-2,5.5c-1.4,1.4-3.2,2-5.5,2c-0.9,0-1.9-0.1-2.8-0.2
		l-1.2-0.3V22c-3.4,0-6.5,1.3-9.3,4c-1.3,1.3-2.4,2.7-3.2,4v37l6,1.5V70h-28V68.5z"/>
	<path class="st0" d="M182.5,64.5c-4.7-4.7-7-11.2-7-19.5c0-8.3,2.4-14.8,7-19.5c4.7-4.7,11.2-7,19.5-7c8.3,0,14.8,2.4,19.5,7
		c4.7,4.7,7,11.2,7,19.5c0,8.3-2.4,14.8-7,19.5c-4.7,4.7-11.2,7-19.5,7C193.7,71.5,187.2,69.1,182.5,64.5z M208.7,63.9
		c1.8-3.7,2.8-10,2.8-18.9c0-8.9-0.9-15.2-2.8-18.9c-1.8-3.7-4.1-5.6-6.8-5.6c-2.7,0-4.9,1.9-6.8,5.6c-1.8,3.7-2.8,10-2.8,18.9
		c0,8.9,0.9,15.2,2.8,18.9c1.8,3.7,4.1,5.6,6.8,5.6C204.7,69.5,206.9,67.6,208.7,63.9z"/>
	<path class="st0" d="M248.9,68.8c-1.6-0.9-2.9-1.8-3.9-2.8c-1.1,1.5-2.2,2.6-3.5,3.4c-0.6,0.4-1.3,0.8-2,1.1H237v-17h4
		c0.9,2.8,2.1,5.4,3.8,7.8c3.5,5.1,7.9,7.7,13.2,7.7c2.8,0,4.9-0.7,6.4-2c1.4-1.4,2.1-3.4,2.1-6c0-2.2-1-4-3-5.5
		c-2-1.5-5-3.4-9.3-5.6c-3.6-1.8-6.5-3.4-8.8-4.9c-2.2-1.4-4.1-3.2-5.7-5.4c-1.6-2.2-2.4-4.7-2.4-7.6c0-4,1.7-7.3,5.1-9.8
		c3.4-2.5,8.7-3.8,15.9-3.8c3.5,0,6.8,0.9,9.8,2.8c1.5,0.9,2.7,1.8,3.8,2.7c0.9-1.2,2-2.3,3.5-3.4c1.1-0.7,1.8-1,2-1.1h2.5v17h-4
		c-1-2.9-2.2-5.4-3.7-7.7c-3.3-5.2-7.3-7.8-11.9-7.8c-1.8,0-3.3,0.7-4.6,2c-1.3,1.3-1.9,3-1.9,5c0,2.5,1.1,4.6,3.2,6.4
		c2.1,1.7,5.4,3.6,9.7,5.9c3.5,1.8,6.4,3.4,8.5,4.8c2.1,1.4,3.9,3,5.4,5s2.3,4.3,2.3,7c0,9.7-7.7,14.5-23,14.5
		C255.9,71.5,252.2,70.6,248.9,68.8z"/>
	<path class="st0" d="M290.5,68.5l6-1.5V3l-6-1.5V0h13c6,0,9,3,9,9v58l6,1.5V70h-28V68.5z"/>
	<path class="st0" d="M330.3,67.7c-3.2-2.5-4.8-5.8-4.8-9.7c0-2.6,0.6-5.2,1.7-7.7c0.5-1.2,1.1-2.3,1.8-3.3c2.7-0.7,5.7-1.3,8.9-1.8
		c7.2-1.2,13.6-1.9,19.1-2.2v-3c0-7.4-0.9-12.5-2.7-15.3c-1.8-2.8-4.6-4.2-8.3-4.2c-1.4,0-2.6,0.2-3.6,0.5l-1.4,0.5v15l-1.3,0.3
		c-1.1,0.1-2,0.2-2.7,0.2c-2.3,0-4.1-0.7-5.5-2c-1.4-1.4-2-3.2-2-5.5c0-3.1,1.5-5.7,4.6-7.8c3.1-2.1,7.7-3.2,13.9-3.2
		c5.2,0,9.7,0.9,13.4,2.8c3.8,1.8,6.6,4.4,8.6,7.6c2,3.2,3,6.9,3,11.1v27l6,1.5V70h-9c-4,0-7.1-1.2-9.3-3.7c-0.9-1-1.7-2.3-2.2-3.8
		c-0.9,1.7-2,3.2-3.3,4.5c-3,3-6.7,4.5-11.2,4.5C338.1,71.5,333.5,70.2,330.3,67.7z M354.7,64c0.7-1,1.5-2.3,2.3-4V45.5
		c-3.1,0-6,0.2-8.8,0.5c-2.1,0.3-3.5,0.4-4.2,0.5c-0.3,0.7-0.7,1.7-1,3c-0.7,2.5-1,5-1,7.5c0,3.7,0.6,6.5,1.7,8.3
		c1.1,1.8,2.6,2.7,4.3,2.7C350.5,68,352.7,66.7,354.7,64z"/>
	<path class="st0" d="M382,23l-5-1.5V20h12.5c3.5,0,6.2,0.7,8.3,2.1c2,1.4,3.8,3.6,5.3,6.4l11.9,23.1L426,24.5l-7.5-3V20H437v1.5
		l-8,3L410,71h-3L382,23z"/>
</g>
</svg>
